<svg xmlns="http://www.w3.org/2000/svg" viewBox="0 0 638.5 371">
  <defs>
    <style>
      .cls-1 {
        fill: #ccd6db;
      }

      .cls-1, .cls-2 {
        font-size: 124px;
        font-family: OpenSans-Semibold, Open Sans;
        font-weight: 600;
      }

      .cls-2 {
        fill: #939393;
      }

      .cls-2, .cls-3 {
        stroke: rgba(0,0,0,0);
      }

      .cls-3 {
        fill: #66d0d5;
      }
    </style>
  </defs>
  <g id="brewing" transform="translate(-5 -138)">
    <text id="brewing_something_new" data-name="brewing
something
new" class="cls-1" transform="translate(642 272)"><tspan x="-480.742" y="0">brewing</tspan><tspan x="-635.803" y="100">something</tspan><tspan x="-248.969" y="200">new</tspan></text>
    <text id="bubble-mask" class="cls-2" transform="translate(642 272)"><tspan x="-480.742" y="0">brewing</tspan><tspan x="-635.803" y="100">something</tspan><tspan x="-248.969" y="200">new</tspan></text>
    <g id="bubbles">
      <path id="bb9" class="cls-3" d="M18,0h0A18,18,0,0,1,36,18V154a0,0,0,0,1,0,0H0a0,0,0,0,1,0,0V18A18,18,0,0,1,18,0Z" transform="translate(12 335)"/>
      <path id="bb8" class="cls-3" d="M18,0h0A18,18,0,0,1,36,18V154a0,0,0,0,1,0,0H0a0,0,0,0,1,0,0V18A18,18,0,0,1,18,0Z" transform="translate(47 335)"/>
      <path id="bb7" class="cls-3" d="M18,0h0A18,18,0,0,1,36,18V154a0,0,0,0,1,0,0H0a0,0,0,0,1,0,0V18A18,18,0,0,1,18,0Z" transform="translate(82 335)"/>
      <path id="bb6" class="cls-3" d="M18,0h0A18,18,0,0,1,36,18V154a0,0,0,0,1,0,0H0a0,0,0,0,1,0,0V18A18,18,0,0,1,18,0Z" transform="translate(117 335)"/>
      <path id="bb5" class="cls-3" d="M18,0h0A18,18,0,0,1,36,18V154a0,0,0,0,1,0,0H0a0,0,0,0,1,0,0V18A18,18,0,0,1,18,0Z" transform="translate(152 335)"/>
      <path id="bb4" class="cls-3" d="M18,0h0A18,18,0,0,1,36,18V154a0,0,0,0,1,0,0H0a0,0,0,0,1,0,0V18A18,18,0,0,1,18,0Z" transform="translate(187 335)"/>
      <path id="bb3" class="cls-3" d="M18,0h0A18,18,0,0,1,36,18V154a0,0,0,0,1,0,0H0a0,0,0,0,1,0,0V18A18,18,0,0,1,18,0Z" transform="translate(222 335)"/>
      <path id="bb2" class="cls-3" d="M18,0h0A18,18,0,0,1,36,18V154a0,0,0,0,1,0,0H0a0,0,0,0,1,0,0V18A18,18,0,0,1,18,0Z" transform="translate(257 335)"/>
      <path id="bb1" class="cls-3" d="M18,0h0A18,18,0,0,1,36,18V154a0,0,0,0,1,0,0H0a0,0,0,0,1,0,0V18A18,18,0,0,1,18,0Z" transform="translate(292 335)"/>
      <path id="b9" class="cls-3" d="M18,0h0A18,18,0,0,1,36,18V154a0,0,0,0,1,0,0H0a0,0,0,0,1,0,0V18A18,18,0,0,1,18,0Z" transform="translate(327 335)"/>
      <path id="b8" class="cls-3" d="M18,0h0A18,18,0,0,1,36,18V154a0,0,0,0,1,0,0H0a0,0,0,0,1,0,0V18A18,18,0,0,1,18,0Z" transform="translate(362 335)"/>
      <path id="b7" class="cls-3" d="M18,0h0A18,18,0,0,1,36,18V154a0,0,0,0,1,0,0H0a0,0,0,0,1,0,0V18A18,18,0,0,1,18,0Z" transform="translate(397 335)"/>
      <path id="b6" class="cls-3" d="M18,0h0A18,18,0,0,1,36,18V154a0,0,0,0,1,0,0H0a0,0,0,0,1,0,0V18A18,18,0,0,1,18,0Z" transform="translate(432 335)"/>
      <path id="b5" class="cls-3" d="M18,0h0A18,18,0,0,1,36,18V154a0,0,0,0,1,0,0H0a0,0,0,0,1,0,0V18A18,18,0,0,1,18,0Z" transform="translate(467 335)"/>
      <path id="b4" class="cls-3" d="M18,0h0A18,18,0,0,1,36,18V154a0,0,0,0,1,0,0H0a0,0,0,0,1,0,0V18A18,18,0,0,1,18,0Z" transform="translate(502 335)"/>
      <path id="b3" class="cls-3" d="M18,0h0A18,18,0,0,1,36,18V154a0,0,0,0,1,0,0H0a0,0,0,0,1,0,0V18A18,18,0,0,1,18,0Z" transform="translate(537 335)"/>
      <path id="b2" class="cls-3" d="M18,0h0A18,18,0,0,1,36,18V154a0,0,0,0,1,0,0H0a0,0,0,0,1,0,0V18A18,18,0,0,1,18,0Z" transform="translate(572 335)"/>
      <path id="b1" class="cls-3" d="M18,0h0A18,18,0,0,1,36,18V154a0,0,0,0,1,0,0H0a0,0,0,0,1,0,0V18A18,18,0,0,1,18,0Z" transform="translate(607 335)"/>
    </g>
  </g>
</svg>
